<?xml version="1.0" encoding="utf-8"?>
<!-- Generator: Adobe Illustrator 21.0.2, SVG Export Plug-In . SVG Version: 6.00 Build 0)  -->
<svg version="1.1" id="Layer_1" xmlns="http://www.w3.org/2000/svg" xmlns:xlink="http://www.w3.org/1999/xlink" x="0px" y="0px"
	 viewBox="0 0 120 120" style="enable-background:new 0 0 120 120;" xml:space="preserve">
<style type="text/css">
	.st0{fill:#376CCF;}
	.st1{fill:#57C99A;}
</style>
<path class="st0" d="M82.4,88.3c-2.7,0-5.2,0-7.8,0c-11.8,0-23.7,0-35.5,0c-4.3,0-7.5-2.4-8.4-6.4c-0.2-0.9-0.2-1.8-0.2-2.7
	c0-13,0-25.9,0-38.9c0-1.8,0-1.8-1.8-1.8c-6,0-12,0-18,0c-3.7,0-5.4-1.6-5.4-5.3c0-6.8,0-13.5,0-20.3c0-3.3,1.7-5,5-5
	c6.9,0,13.8,0,20.7,0c3.1,0,4.9,1.8,4.9,5c0,5.5,0,11.1,0,16.6c0,0.5,0,1,0,1.7c1-0.1,1.8-0.2,2.7-0.2c13.6,0,27.2,0,40.8,0
	c5.1,0,8.3,4.2,8.2,8.4c-0.1,13.5,0,27-0.1,40.5c0,1.3,0.4,1.7,1.7,1.7c6.3-0.1,12.6,0,18.9,0c3,0,4.8,1.7,4.8,4.7c0,7,0,14,0,20.9
	c0,3-1.7,4.7-4.7,4.7c-7.1,0-14.1,0-21.2,0c-3,0-4.7-1.7-4.7-4.8c0-5.9,0-11.7,0-17.6C82.4,89,82.4,88.5,82.4,88.3z"/>
<path class="st1" d="M111.2,19.3c0,2.6,0,5.2,0,7.8c0,2.3-1,3.4-3.3,3.4c-5.2,0.1-10.5,0.1-15.7,0c-2,0-3.6-1.6-3.6-3.6
	c0-5.1,0-10.2,0-15.3c0-2,1.6-3.7,3.7-3.7c5.1,0,10.3,0,15.4,0c2.3,0,3.5,1.2,3.5,3.5C111.2,14.1,111.2,16.7,111.2,19.3z"/>
</svg>
